PathFileType	4	(X/Y/Z)	Walk8.trc
DataRate	CameraRate	NumFrames	NumMarkers	Units	OrigDataRate	OrigDataStartFrame	OrigNumFrames
200.000000	200.000000	6	69	mm	200.000000	674	868
Frame#	Times		RCAR		LowerBodyModelVer		LMT5		LTB1		LACR1		LTB2		LFHD		LMT1		RUA1		LToe		RFHD		RASI		RElbow		LUA1		STRN		RACR1		RFA1		RTH3		CLAV		RBHD		LTH3		RWRU		LCAR		RTH2		RLFC		LTH1		RTH1		RBack		RTB2		RTB4		LTH2		RTB3		LFA1		LElbow		LWRR		LLFC		C7		RMT1		RTH4		LPSI		RToe		RTB1		LTB4		LWRU		LTH4		LElbowM		LTB3		RPSI		LMMAL		SACR		RLMAL		RMMAL		LBHD		RCAL		RMT5		RWRR		T10		LASI		LCAL		LHJC		MidPelvis		OPelvis		PELOrigin		RHJC		XPelvis		YPelvis		ZPelvis		LLMAL		RElbowM
			X1	Y1	Z1	X2	Y2	Z2	X3	Y3	Z3	X4	Y4	Z4	X5	Y5	Z5	X6	Y6	Z6	X7	Y7	Z7	X8	Y8	Z8	X9	Y9	Z9	X10	Y10	Z10	X11	Y11	Z11	X12	Y12	Z12	X13	Y13	Z13	X14	Y14	Z14	X15	Y15	Z15	X16	Y16	Z16	X17	Y17	Z17	X18	Y18	Z18	X19	Y19	Z19	X20	Y20	Z20	X21	Y21	Z21	X22	Y22	Z22	X23	Y23	Z23	X24	Y24	Z24	X25	Y25	Z25	X26	Y26	Z26	X27	Y27	Z27	X28	Y28	Z28	X29	Y29	Z29	X30	Y30	Z30	X31	Y31	Z31	X32	Y32	Z32	X33	Y33	Z33	X34	Y34	Z34	X35	Y35	Z35	X36	Y36	Z36	X37	Y37	Z37	X38	Y38	Z38	X39	Y39	Z39	X40	Y40	Z40	X41	Y41	Z41	X42	Y42	Z42	X43	Y43	Z43	X44	Y44	Z44	X45	Y45	Z45	X46	Y46	Z46	X47	Y47	Z47	X48	Y48	Z48	X49	Y49	Z49	X50	Y50	Z50	X51	Y51	Z51	X52	Y52	Z52	X53	Y53	Z53	X54	Y54	Z54	X55	Y55	Z55	X56	Y56	Z56	X57	Y57	Z57	X58	Y58	Z58	X59	Y59	Z59	X60	Y60	Z60	X61	Y61	Z61	X62	Y62	Z62	X63	Y63	Z63	X64	Y64	Z64	X65	Y65	Z65	X66	Y66	Z66	X67	Y67	Z67	X68	Y68	Z68	X69	Y69	Z69

674	3.37	41.239	729.35	357.82	9	2014	4	-191.65	36.296	-11.763	-37.515	315.19	17.114	109.61	1351	-99.443	-110.39	261.39	-39.223	212.01	1565.2	-8.8705	-164.01	36.828	66.029	78.623	1153.5	300.01	-99.698	21.095	38.598	228.74	1569.5	84.541	242.11	951.62	196.7	15.403	1039.3	319.62	131.45	1179.3	-200.41	236.49	1206	54.503	111.09	1338.7	212.63	-8.0418	896.56	337.8	263.55	571.16	222.26	176.35	1310.7	51.903	78.759	1524.4	129.44	36.314	579.45	-97.021	-10.157	787.38	349.97	374.68	882.55	-217.27	285.18	674.12	221.44	289.71	493.4	195.16	92.569	725.31	-166.25	209.34	729.46	268.38	-14.576	1285.7	164.2	353.68	266.04	181.21	371.55	265.14	120.87	119.98	642.99	-110.4	381.59	180.67	127.12	212.67	944.41	-244.37	126.85	1056.6	-242.04	330.84	909.12	-179.52	-3.7557	463.68	-62.194	36.919	1388.6	65.499	477.27	39.502	95.863	235.84	649.1	245.37	-19.137	936.02	21.326	541.17	44.877	122.48	360.95	352.13	121.39	-94.529	249.34	17.554	303	866.99	-231.67	64.489	654.6	-126.26	96.012	1011.8	-175.28	-148.86	183.77	16.885	-12.87	940.48	111.23	-233.44	116.93	76.781	-16.003	938.25	66.28	362.04	61.89	157.95	373.2	70.186	74.878	60.056	1511	-10.582	300.24	25.45	122.98	485.34	40.642	154.69	45.51	781.64	306.27	-31.207	1121.4	50.992	223.83	928.37	-93.915	-314.29	126.69	24.872	159.15	838.45	-35.672	108.48	939.12	58.837	232.97	939.99	51.394	232.97	939.99	51.394	171.58	854.26	161.95	312.81	940.53	46.328	232.03	1019.7	45.075	237.98	946.36	130.98	-245.35	117.42	-7.6317	8.7323	1011.8	224.71
675	3.375	48.849	729.7	358.31	9	2014	4	-190.79	37.527	-11.615	-30.183	314.75	16.648	116.23	1351.6	-98.847	-103.97	262.32	-39.774	218.5	1565.9	-8.3363	-163.37	37.475	65.951	85.748	1153.9	300.56	-100.25	21.04	38.78	235.39	1570.1	85.047	249.35	952.68	196.99	22.717	1039.6	320.14	137.12	1179.6	-199.69	243.29	1206.8	55.189	117.9	1339.2	213.26	-0.54397	896.88	338.36	270	572.14	222.33	183.07	1311.4	52.5	85.458	1525.1	130.21	45.028	578.79	-96.802	-2.5274	787.77	350.67	378.63	881.4	-216.7	292.08	674.98	221.89	296.12	494.14	195.19	100.4	725.05	-165.75	216.39	730.56	268.65	-7.7557	1286.2	164.85	357.64	265.92	180.97	374.91	264.7	120.4	128.29	642.89	-109.87	383.93	180.12	126.67	216.91	944.12	-243.46	131.8	1056.9	-241.1	335.03	908.22	-178.86	5.6521	462.91	-62.247	43.626	1389.2	66.238	477.68	37.946	95.371	242.55	650.15	245.46	-12.044	936.34	21.188	542.19	42.113	121.88	365.38	351.81	120.92	-88.361	249.9	16.993	306.81	866.13	-230.86	72.748	654.18	-125.85	100.79	1012.3	-174.21	-143.86	185.39	16.261	-5.9621	941.13	111.18	-229.65	120.21	76.009	-9.0029	938.73	66.184	362.79	61.678	157.8	373.73	69.659	74.627	66.53	1511.6	-9.7972	300.41	25.836	123.08	486.61	38.162	154.34	52.95	782	306.74	-24.485	1122	51.328	231.13	928.76	-92.957	-309.95	132.18	24.354	166.64	839.11	-34.619	115.62	939.72	59.101	240.24	940.72	52.018	240.24	940.72	52.018	179.03	855.37	162.55	320.08	941.31	46.953	239.24	1020.4	45.505	245.24	947.28	131.59	-241.62	120.85	-8.331	16.137	1012.1	225.25
676	3.38	56.6	730.16	358.81	9	2014	4	-189.83	38.868	-11.443	-22.507	314.31	16.082	122.85	1352.3	-98.259	-97.232	263.31	-40.387	224.99	1566.5	-7.8008	-162.61	38.213	65.874	92.874	1154.5	301.1	-100.83	20.977	38.964	242.04	1570.8	85.556	256.54	953.84	197.28	30.046	1040.1	320.66	142.78	1180	-198.97	250.08	1207.6	55.865	124.72	1339.8	213.86	7.0149	897.29	338.91	276.29	573.14	222.47	189.78	1312.2	53.074	92.16	1525.8	130.96	53.956	578.09	-96.618	5.212	788.23	351.34	382.38	880.14	-216.15	298.87	675.86	222.46	302.34	494.89	195.27	108.28	724.83	-165.23	223.32	731.71	268.95	-0.93236	1286.7	165.49	361.33	265.8	180.82	378.12	264.3	120.07	136.73	642.84	-109.35	386.1	179.61	126.32	221.01	943.85	-242.54	136.71	1057.2	-240.14	339.05	907.24	-178.21	15.391	462.1	-62.359	50.328	1389.9	66.955	478.01	36.685	94.955	249.12	651.23	245.63	-4.9938	936.7	21.008	543.07	39.726	121.39	369.67	351.52	120.63	-81.852	250.5	16.384	310.41	865.21	-230.05	81.137	653.76	-125.44	105.5	1013	-173.11	-138.51	187.08	15.575	0.91047	941.83	111.08	-225.48	123.59	75.205	-2.0417	939.26	66.046	363.41	61.521	157.68	374.17	69.236	74.416	73.012	1512.3	-9.0281	300.55	26.162	123.18	487.76	35.915	154.09	60.521	782.48	307.22	-17.78	1122.6	51.652	238.4	929.26	-91.983	-305.16	137.84	23.883	174.13	839.88	-33.562	122.71	940.41	59.346	247.47	941.55	52.647	247.47	941.55	52.647	186.46	856.59	163.14	327.31	942.22	47.584	246.38	1021.3	45.944	252.46	948.31	132.2	-237.55	124.39	-9.0488	23.575	1012.6	225.79
677	3.385	64.491	730.73	359.31	9	2014	4	-188.75	40.325	-11.251	-14.482	313.87	15.412	129.47	1353	-97.682	-90.162	264.34	-41.066	231.5	1567.3	-7.2645	-161.72	39.057	65.795	100	1155.1	301.64	-101.44	20.907	39.143	248.7	1571.5	86.067	263.67	955.1	197.55	37.389	1040.6	321.17	148.42	1180.5	-198.26	256.84	1208.5	56.527	131.56	1340.5	214.42	14.633	897.78	339.45	282.41	574.17	222.7	196.5	1313	53.623	98.862	1526.6	131.7	63.093	577.36	-96.474	13.058	788.77	351.98	385.93	878.77	-215.62	305.54	676.73	223.12	308.34	495.63	195.4	116.19	724.64	-164.71	230.12	732.91	269.3	5.8921	1287.3	166.1	364.74	265.67	180.78	381.18	263.94	119.88	145.3	642.85	-108.86	388.12	179.16	126.08	224.98	943.6	-241.63	141.56	1057.6	-239.17	342.91	906.19	-177.58	25.455	461.25	-62.537	57.022	1390.6	67.646	478.26	35.692	94.61	255.56	652.35	245.87	2.007	937.1	20.794	543.84	37.692	121	373.79	351.26	120.52	-74.992	251.16	15.721	313.8	864.26	-229.27	89.647	653.35	-125.05	110.15	1013.7	-171.99	-132.81	188.84	14.822	7.7431	942.57	110.95	-220.9	127.05	74.363	4.8751	939.84	65.873	363.93	61.411	157.59	374.52	68.909	74.244	79.5	1513.2	-8.2769	300.67	26.43	123.28	488.8	33.898	153.92	68.223	783.06	307.71	-11.094	1123.3	51.969	245.61	929.89	-91.008	-299.9	143.66	23.455	181.58	840.75	-32.51	129.76	941.16	59.573	254.64	942.49	53.273	254.64	942.49	53.273	193.86	857.9	163.71	334.48	943.25	48.209	253.45	1022.2	46.385	259.62	949.44	132.81	-233.13	128.04	-9.7908	31.04	1013.1	226.34
678	3.39	72.518	731.41	359.82	9	2014	4	-187.52	41.904	-11.046	-6.1057	313.41	14.637	136.07	1353.9	-97.117	-82.756	265.43	-41.813	238.02	1568.1	-6.728	-160.66	40.02	65.706	107.14	1155.9	302.18	-102.02	20.829	39.309	255.36	1572.3	86.58	270.75	956.45	197.82	44.744	1041.3	321.68	154.05	1181	-197.57	263.58	1209.5	57.171	138.4	1341.2	214.95	22.307	898.36	339.98	288.34	575.2	223	203.2	1313.9	54.142	105.56	1527.4	132.43	72.432	576.61	-96.375	21.006	789.39	352.6	389.29	877.28	-215.1	312.08	677.59	223.88	314.09	496.37	195.57	124.12	724.49	-164.18	236.81	734.14	269.69	12.716	1288	166.7	367.87	265.54	180.83	384.08	263.62	119.83	154	642.91	-108.39	389.98	178.76	125.95	228.81	943.37	-240.72	146.38	1058.1	-238.19	346.61	905.05	-176.97	35.833	460.37	-62.788	63.701	1391.4	68.31	478.44	34.934	94.328	261.84	653.48	246.18	8.9546	937.55	20.558	544.5	35.981	120.7	377.75	351.03	120.58	-67.772	251.87	14.994	316.99	863.26	-228.51	98.272	652.93	-124.67	114.75	1014.6	-170.84	-126.73	190.66	13.998	14.533	943.36	110.8	-215.89	130.56	73.48	11.744	940.45	65.678	364.34	61.341	157.51	374.8	68.67	74.11	85.992	1514.1	-7.5461	300.77	26.647	123.37	489.72	32.104	153.81	76.054	783.76	308.21	-4.4301	1124.1	52.284	252.74	930.62	-90.047	-294.15	149.59	23.067	188.98	841.72	-31.472	136.75	941.99	59.782	261.75	943.53	53.887	261.75	943.53	53.887	201.22	859.28	164.28	341.58	944.4	48.815	260.43	1023.2	46.821	266.72	950.67	133.41	-228.34	131.78	-10.562	38.525	1013.8	226.88
679	3.395	80.677	732.2	360.34	9	2014	4	-186.1	43.611	-10.836	2.6185	312.95	13.755	142.66	1354.8	-96.567	-75.011	266.56	-42.628	244.55	1569	-6.192	-159.39	41.119	65.6	114.28	1156.7	302.7	-102.53	20.742	39.454	262.03	1573.1	87.093	277.78	957.88	198.08	52.111	1042	322.19	159.65	1181.7	-196.88	270.28	1210.5	57.794	145.25	1342.1	215.44	30.037	899.01	340.52	294.08	576.24	223.38	209.88	1314.8	54.629	112.26	1528.2	133.13	81.962	575.83	-96.326	29.054	790.08	353.19	392.46	875.68	-214.6	318.48	678.43	224.71	319.57	497.07	195.81	132.08	724.38	-163.64	243.39	735.4	270.13	19.536	1288.8	167.27	370.7	265.4	180.98	386.83	263.34	119.92	162.8	643.03	-107.96	391.69	178.39	125.93	232.52	943.17	-239.83	151.15	1058.7	-237.2	350.16	903.84	-176.37	46.512	459.46	-63.119	70.362	1392.3	68.947	478.58	34.379	94.104	267.97	654.63	246.55	15.846	938.03	20.311	545.06	34.561	120.48	381.54	350.81	120.81	-60.187	252.63	14.195	319.99	862.23	-227.77	107	652.53	-124.31	119.3	1015.5	-169.67	-120.27	192.52	13.102	21.277	944.19	110.63	-210.45	134.11	72.553	18.562	941.11	65.469	364.67	61.302	157.46	375.02	68.511	74.01	92.486	1515	-6.8384	300.84	26.818	123.46	490.52	30.522	153.76	84.01	784.55	308.72	2.2104	1124.9	52.603	259.79	931.46	-89.115	-287.9	155.62	22.713	196.31	842.77	-30.459	143.67	942.89	59.975	268.78	944.67	54.482	268.78	944.67	54.482	208.54	860.73	164.83	348.62	945.66	49.391	267.33	1024.3	47.245	273.76	951.99	133.99	-223.17	135.59	-11.367	46.027	1014.5	227.44
